<svg width="891" height="404" viewBox="0 0 891 404" fill="none" xmlns="http://www.w3.org/2000/svg">
<rect width="891" height="404" rx="15" fill="#0D1117"/>
<path d="M322.76 228.8C316.307 228.8 311.107 226.693 307.16 222.48L310.04 217.44L310.36 216.72L310.92 217.04C311.027 217.413 311.16 217.84 311.32 218.32C311.48 218.747 311.853 219.28 312.44 219.92C313.827 221.093 315.427 222.027 317.24 222.72C319.107 223.413 321.213 223.76 323.56 223.76C326.547 223.76 329 222.933 330.92 221.28C332.893 219.573 333.88 217.547 333.88 215.2C333.88 213.653 333.56 212.347 332.92 211.28C332.333 210.213 331.213 209.173 329.56 208.16C327.96 207.147 325.587 205.973 322.44 204.64C317.267 202.613 313.693 200.347 311.72 197.84C309.747 195.333 308.76 192.667 308.76 189.84C308.76 186.16 310.12 183.2 312.84 180.96C315.56 178.667 319.267 177.52 323.96 177.52C326.68 177.52 329.24 178.08 331.64 179.2C334.04 180.267 336.093 181.787 337.8 183.76L334.2 188.56L333.72 188.24C333.667 187.813 333.56 187.387 333.4 186.96C333.24 186.533 332.867 186 332.28 185.36C331 184.133 329.64 183.307 328.2 182.88C326.76 182.4 325.053 182.16 323.08 182.16C320.467 182.16 318.387 182.88 316.84 184.32C315.293 185.76 314.52 187.467 314.52 189.44C314.52 190.933 314.84 192.267 315.48 193.44C316.173 194.56 317.4 195.68 319.16 196.8C320.92 197.92 323.48 199.147 326.84 200.48C330.093 201.813 332.627 203.173 334.44 204.56C336.253 205.893 337.533 207.36 338.28 208.96C339.027 210.507 339.4 212.32 339.4 214.4C339.4 216.693 338.813 218.96 337.64 221.2C336.52 223.387 334.733 225.2 332.28 226.64C329.827 228.08 326.653 228.8 322.76 228.8ZM387.32 228.08V178.16H398.92C403.187 178.16 406.493 178.747 408.84 179.92C411.24 181.093 413.267 182.773 414.92 184.96C418.173 189.333 419.8 195.467 419.8 203.36C419.587 208.427 418.733 212.827 417.24 216.56C415.8 220.24 413.507 223.093 410.36 225.12C407.267 227.093 403.133 228.08 397.96 228.08H387.32ZM392.6 223.68H397.72C403.427 223.68 407.613 221.973 410.28 218.56C412.947 215.093 414.253 210.133 414.2 203.68C414.147 197.173 412.92 192.08 410.52 188.4C408.173 184.72 404.2 182.88 398.6 182.88H392.6V223.68ZM467.32 228.08V178.16H478.92C483.187 178.16 486.493 178.747 488.84 179.92C491.24 181.093 493.267 182.773 494.92 184.96C498.173 189.333 499.8 195.467 499.8 203.36C499.587 208.427 498.733 212.827 497.24 216.56C495.8 220.24 493.507 223.093 490.36 225.12C487.267 227.093 483.133 228.08 477.96 228.08H467.32ZM472.6 223.68H477.72C483.427 223.68 487.613 221.973 490.28 218.56C492.947 215.093 494.253 210.133 494.2 203.68C494.147 197.173 492.92 192.08 490.52 188.4C488.173 184.72 484.2 182.88 478.6 182.88H472.6V223.68ZM546.28 228V178.16H550.68L563 202.56L575.56 178.08H579.8V228H574.52V190.4L563.72 210.48H561.56L551.48 190.64V228H546.28Z" fill="white"/>
</svg>
