<svg width="891" height="404" viewBox="0 0 891 404" fill="none" xmlns="http://www.w3.org/2000/svg">
<rect width="891" height="404" rx="15" fill="#0D1117"/>
<path d="M283 228.88C277.293 228.88 272.893 226.667 269.8 222.24C266.707 217.813 265.16 211.52 265.16 203.36C265.16 195.467 266.707 189.253 269.8 184.72C272.893 180.133 277.293 177.84 283 177.84C288.707 177.84 293.107 180.133 296.2 184.72C299.293 189.253 300.84 195.467 300.84 203.36C300.84 211.52 299.293 217.813 296.2 222.24C293.107 226.667 288.707 228.88 283 228.88ZM283 224C286.787 224 289.747 222.213 291.88 218.64C294.013 215.067 295.08 209.973 295.08 203.36C295.08 197.067 294.013 192.053 291.88 188.32C289.747 184.587 286.787 182.72 283 182.72C279.213 182.72 276.253 184.587 274.12 188.32C271.987 192.053 270.92 197.067 270.92 203.36C270.92 209.973 271.987 215.067 274.12 218.64C276.253 222.213 279.213 224 283 224ZM347.48 228V178.16H362.2C368.067 178.16 372.28 179.467 374.84 182.08C377.453 184.693 378.76 188.133 378.76 192.4C378.76 194.267 378.333 196.133 377.48 198C376.68 199.867 375.507 201.493 373.96 202.88C372.467 204.267 370.68 205.227 368.6 205.76L380.12 228H373.88L362.84 206H353.16V228H347.48ZM353.16 201.04H362.84C366.413 201.04 369 200.267 370.6 198.72C372.2 197.12 373 195.013 373 192.4C373 189.893 372.2 187.787 370.6 186.08C369 184.32 366.413 183.44 362.84 183.44H353.16V201.04ZM429.48 228V223.28H439.32V182.88H430.04V178.16H454.76V182.88H444.92V223.36H455.24V228H429.48ZM523 228.88C517.293 228.88 512.893 226.667 509.8 222.24C506.707 217.813 505.16 211.52 505.16 203.36C505.16 195.467 506.707 189.253 509.8 184.72C512.893 180.133 517.293 177.84 523 177.84C528.707 177.84 533.107 180.133 536.2 184.72C539.293 189.253 540.84 195.467 540.84 203.36C540.84 211.52 539.293 217.813 536.2 222.24C533.107 226.667 528.707 228.88 523 228.88ZM523 224C526.787 224 529.747 222.213 531.88 218.64C534.013 215.067 535.08 209.973 535.08 203.36C535.08 197.067 534.013 192.053 531.88 188.32C529.747 184.587 526.787 182.72 523 182.72C519.213 182.72 516.253 184.587 514.12 188.32C511.987 192.053 510.92 197.067 510.92 203.36C510.92 209.973 511.987 215.067 514.12 218.64C516.253 222.213 519.213 224 523 224ZM587 178.16H592.44L613.4 215.12V178.16H619.48V178.72C619.16 179.04 618.947 179.387 618.84 179.76C618.787 180.133 618.76 180.773 618.76 181.68V228H614.36L592.36 188.8V228H587V178.16Z" fill="white"/>
</svg>
